<mxfile host="Electron" modified="2023-05-02T13:46:45.445Z" agent="Mozilla/5.0 (X11; Linux x86_64) AppleWebKit/537.36 (KHTML, like Gecko) draw.io/21.2.1 Chrome/112.0.5615.87 Electron/24.1.2 Safari/537.36" etag="FyRaHJsqJuR9TnL-2yeh" version="21.2.1" type="device">
  <diagram id="C5RBs43oDa-KdzZeNtuy" name="Page-1">
    <mxGraphModel dx="1595" dy="482" grid="1" gridSize="10" guides="1" tooltips="1" connect="1" arrows="1" fold="1" page="1" pageScale="1" pageWidth="827" pageHeight="1169" math="0" shadow="0">
      <root>
        <mxCell id="WIyWlLk6GJQsqaUBKTNV-0" />
        <mxCell id="WIyWlLk6GJQsqaUBKTNV-1" parent="WIyWlLk6GJQsqaUBKTNV-0" />
        <mxCell id="RE29y_2BwcNEQJVxWCb2-0" value="Camera" style="swimlane;fontStyle=1;align=center;verticalAlign=top;childLayout=stackLayout;horizontal=1;startSize=26;horizontalStack=0;resizeParent=1;resizeParentMax=0;resizeLast=0;collapsible=1;marginBottom=0;whiteSpace=wrap;html=1;" vertex="1" parent="WIyWlLk6GJQsqaUBKTNV-1">
          <mxGeometry x="100" y="40" width="200" height="170" as="geometry" />
        </mxCell>
        <mxCell id="RE29y_2BwcNEQJVxWCb2-1" value="-&amp;nbsp; resolution tuple(int, int)&lt;br&gt;-&amp;nbsp; cameraId: int&lt;br&gt;-&amp;nbsp; videoCapture: cv2.VideoCapture&lt;br&gt;-&amp;nbsp; running: bool" style="text;strokeColor=none;fillColor=none;align=left;verticalAlign=top;spacingLeft=4;spacingRight=4;overflow=hidden;rotatable=0;points=[[0,0.5],[1,0.5]];portConstraint=eastwest;whiteSpace=wrap;html=1;" vertex="1" parent="RE29y_2BwcNEQJVxWCb2-0">
          <mxGeometry y="26" width="200" height="64" as="geometry" />
        </mxCell>
        <mxCell id="RE29y_2BwcNEQJVxWCb2-2" value="" style="line;strokeWidth=1;fillColor=none;align=left;verticalAlign=middle;spacingTop=-1;spacingLeft=3;spacingRight=3;rotatable=0;labelPosition=right;points=[];portConstraint=eastwest;strokeColor=inherit;" vertex="1" parent="RE29y_2BwcNEQJVxWCb2-0">
          <mxGeometry y="90" width="200" height="8" as="geometry" />
        </mxCell>
        <mxCell id="RE29y_2BwcNEQJVxWCb2-3" value="+ start() : void&lt;br&gt;+ stop() : void&lt;br&gt;+ is_running() : bool&lt;br&gt;+ getFrame() : int[][]" style="text;strokeColor=none;fillColor=none;align=left;verticalAlign=top;spacingLeft=4;spacingRight=4;overflow=hidden;rotatable=0;points=[[0,0.5],[1,0.5]];portConstraint=eastwest;whiteSpace=wrap;html=1;" vertex="1" parent="RE29y_2BwcNEQJVxWCb2-0">
          <mxGeometry y="98" width="200" height="72" as="geometry" />
        </mxCell>
        <mxCell id="RE29y_2BwcNEQJVxWCb2-4" value="HandPoseDetection" style="swimlane;fontStyle=1;align=center;verticalAlign=top;childLayout=stackLayout;horizontal=1;startSize=26;horizontalStack=0;resizeParent=1;resizeParentMax=0;resizeLast=0;collapsible=1;marginBottom=0;whiteSpace=wrap;html=1;" vertex="1" parent="WIyWlLk6GJQsqaUBKTNV-1">
          <mxGeometry x="390" y="70" width="770" height="110" as="geometry" />
        </mxCell>
        <mxCell id="RE29y_2BwcNEQJVxWCb2-5" value="- mpHands: mediapipe.solutions.hands&lt;br&gt;- hands: mediapipe.solutions.mpHands.Hands&lt;br&gt;" style="text;strokeColor=none;fillColor=none;align=left;verticalAlign=top;spacingLeft=4;spacingRight=4;overflow=hidden;rotatable=0;points=[[0,0.5],[1,0.5]];portConstraint=eastwest;whiteSpace=wrap;html=1;" vertex="1" parent="RE29y_2BwcNEQJVxWCb2-4">
          <mxGeometry y="26" width="770" height="34" as="geometry" />
        </mxCell>
        <mxCell id="RE29y_2BwcNEQJVxWCb2-6" value="" style="line;strokeWidth=1;fillColor=none;align=left;verticalAlign=middle;spacingTop=-1;spacingLeft=3;spacingRight=3;rotatable=0;labelPosition=right;points=[];portConstraint=eastwest;strokeColor=inherit;" vertex="1" parent="RE29y_2BwcNEQJVxWCb2-4">
          <mxGeometry y="60" width="770" height="8" as="geometry" />
        </mxCell>
        <mxCell id="RE29y_2BwcNEQJVxWCb2-7" value="+ getPose(cameraFrame: int[][]): mediapipe.Landmark[]&lt;br&gt;+ getHandJointLandmark(handType: HandType, handjointType: HandJointType, handPoseData: mediapipe.Landmark[]) : mediapipe.Landmark" style="text;strokeColor=none;fillColor=none;align=left;verticalAlign=top;spacingLeft=4;spacingRight=4;overflow=hidden;rotatable=0;points=[[0,0.5],[1,0.5]];portConstraint=eastwest;whiteSpace=wrap;html=1;" vertex="1" parent="RE29y_2BwcNEQJVxWCb2-4">
          <mxGeometry y="68" width="770" height="42" as="geometry" />
        </mxCell>
        <mxCell id="RE29y_2BwcNEQJVxWCb2-8" value="" style="endArrow=open;html=1;endSize=12;startArrow=diamondThin;startSize=14;startFill=1;edgeStyle=orthogonalEdgeStyle;align=left;verticalAlign=bottom;rounded=0;exitX=0;exitY=0.059;exitDx=0;exitDy=0;entryX=1;entryY=0.5;entryDx=0;entryDy=0;exitPerimeter=0;" edge="1" parent="WIyWlLk6GJQsqaUBKTNV-1" source="RE29y_2BwcNEQJVxWCb2-5" target="RE29y_2BwcNEQJVxWCb2-1">
          <mxGeometry x="-1" y="3" relative="1" as="geometry">
            <mxPoint x="350" y="310" as="sourcePoint" />
            <mxPoint x="510" y="310" as="targetPoint" />
          </mxGeometry>
        </mxCell>
        <mxCell id="RE29y_2BwcNEQJVxWCb2-9" value="1" style="text;html=1;strokeColor=none;fillColor=none;align=center;verticalAlign=middle;whiteSpace=wrap;rounded=0;" vertex="1" parent="WIyWlLk6GJQsqaUBKTNV-1">
          <mxGeometry x="300" y="80" width="10" height="10" as="geometry" />
        </mxCell>
        <mxCell id="RE29y_2BwcNEQJVxWCb2-10" value="1" style="text;html=1;strokeColor=none;fillColor=none;align=center;verticalAlign=middle;whiteSpace=wrap;rounded=0;" vertex="1" parent="WIyWlLk6GJQsqaUBKTNV-1">
          <mxGeometry x="380" y="80" width="6" height="10" as="geometry" />
        </mxCell>
        <mxCell id="RE29y_2BwcNEQJVxWCb2-11" value="HandType" style="swimlane;fontStyle=1;align=center;verticalAlign=top;childLayout=stackLayout;horizontal=1;startSize=26;horizontalStack=0;resizeParent=1;resizeParentMax=0;resizeLast=0;collapsible=1;marginBottom=0;whiteSpace=wrap;html=1;" vertex="1" parent="WIyWlLk6GJQsqaUBKTNV-1">
          <mxGeometry x="260" y="260" width="160" height="68" as="geometry" />
        </mxCell>
        <mxCell id="RE29y_2BwcNEQJVxWCb2-12" value="+ LEFT_HAND&lt;br&gt;+ RIGHT_HAND" style="text;strokeColor=none;fillColor=none;align=left;verticalAlign=top;spacingLeft=4;spacingRight=4;overflow=hidden;rotatable=0;points=[[0,0.5],[1,0.5]];portConstraint=eastwest;whiteSpace=wrap;html=1;" vertex="1" parent="RE29y_2BwcNEQJVxWCb2-11">
          <mxGeometry y="26" width="160" height="34" as="geometry" />
        </mxCell>
        <mxCell id="RE29y_2BwcNEQJVxWCb2-13" value="" style="line;strokeWidth=1;fillColor=none;align=left;verticalAlign=middle;spacingTop=-1;spacingLeft=3;spacingRight=3;rotatable=0;labelPosition=right;points=[];portConstraint=eastwest;strokeColor=inherit;" vertex="1" parent="RE29y_2BwcNEQJVxWCb2-11">
          <mxGeometry y="60" width="160" height="8" as="geometry" />
        </mxCell>
        <mxCell id="RE29y_2BwcNEQJVxWCb2-18" value="" style="endArrow=open;endFill=1;endSize=12;html=1;rounded=0;entryX=0.5;entryY=0;entryDx=0;entryDy=0;exitX=0;exitY=0.5;exitDx=0;exitDy=0;" edge="1" parent="WIyWlLk6GJQsqaUBKTNV-1" source="RE29y_2BwcNEQJVxWCb2-5" target="RE29y_2BwcNEQJVxWCb2-11">
          <mxGeometry width="160" relative="1" as="geometry">
            <mxPoint x="385" y="160" as="sourcePoint" />
            <mxPoint x="680" y="140" as="targetPoint" />
            <Array as="points">
              <mxPoint x="340" y="113" />
            </Array>
          </mxGeometry>
        </mxCell>
        <mxCell id="RE29y_2BwcNEQJVxWCb2-19" value="HandJointType" style="swimlane;fontStyle=1;align=center;verticalAlign=top;childLayout=stackLayout;horizontal=1;startSize=26;horizontalStack=0;resizeParent=1;resizeParentMax=0;resizeLast=0;collapsible=1;marginBottom=0;whiteSpace=wrap;html=1;" vertex="1" parent="WIyWlLk6GJQsqaUBKTNV-1">
          <mxGeometry x="440" y="260" width="160" height="348" as="geometry" />
        </mxCell>
        <mxCell id="RE29y_2BwcNEQJVxWCb2-20" value="&lt;div&gt;+ WRIST&lt;/div&gt;&lt;div&gt;+ THUMB_CMC&lt;/div&gt;&lt;div&gt;+ THUMB_MCP&lt;/div&gt;&lt;div&gt;+ THUMB_IP&lt;/div&gt;&lt;div&gt;+ THUMB_TIP&lt;/div&gt;&lt;div&gt;+ INDEX_FINGER_MCP&lt;/div&gt;&lt;div&gt;+ INDEX_FINGER_PIP&lt;/div&gt;&lt;div&gt;+ INDEX_FINGER_DIP&lt;/div&gt;&lt;div&gt;+ INDEX_FINGER_TIP&lt;/div&gt;&lt;div&gt;+ MIDDLE_FINGER_MCP&lt;/div&gt;&lt;div&gt;+ MIDDLE_FINGER_PIP&lt;/div&gt;&lt;div&gt;+ MIDDLE_FINGER_DIP&lt;/div&gt;&lt;div&gt;+ MIDDLE_FINGER_TIP&lt;/div&gt;&lt;div&gt;+ RING_FINGER_MCP&lt;/div&gt;&lt;div&gt;+ RING_FINGER_PIP&lt;/div&gt;&lt;div&gt;+ RING_FINGER_DIP&lt;/div&gt;&lt;div&gt;+ RING_FINGER_TIP&lt;/div&gt;&lt;div&gt;+ PINKY_MCP&lt;/div&gt;&lt;div&gt;+ PINKY_PIP&lt;/div&gt;&lt;div&gt;+ PINKY_DIP&lt;/div&gt;&lt;div&gt;+ PINKY_TIP&lt;/div&gt;" style="text;strokeColor=none;fillColor=none;align=left;verticalAlign=top;spacingLeft=4;spacingRight=4;overflow=hidden;rotatable=0;points=[[0,0.5],[1,0.5]];portConstraint=eastwest;whiteSpace=wrap;html=1;" vertex="1" parent="RE29y_2BwcNEQJVxWCb2-19">
          <mxGeometry y="26" width="160" height="314" as="geometry" />
        </mxCell>
        <mxCell id="RE29y_2BwcNEQJVxWCb2-21" value="" style="line;strokeWidth=1;fillColor=none;align=left;verticalAlign=middle;spacingTop=-1;spacingLeft=3;spacingRight=3;rotatable=0;labelPosition=right;points=[];portConstraint=eastwest;strokeColor=inherit;" vertex="1" parent="RE29y_2BwcNEQJVxWCb2-19">
          <mxGeometry y="340" width="160" height="8" as="geometry" />
        </mxCell>
        <mxCell id="RE29y_2BwcNEQJVxWCb2-24" value="" style="endArrow=open;endFill=1;endSize=12;html=1;rounded=0;exitX=0;exitY=0.5;exitDx=0;exitDy=0;entryX=0.476;entryY=0;entryDx=0;entryDy=0;entryPerimeter=0;" edge="1" parent="WIyWlLk6GJQsqaUBKTNV-1" source="RE29y_2BwcNEQJVxWCb2-7" target="RE29y_2BwcNEQJVxWCb2-19">
          <mxGeometry width="160" relative="1" as="geometry">
            <mxPoint x="440" y="190" as="sourcePoint" />
            <mxPoint x="600" y="190" as="targetPoint" />
            <Array as="points">
              <mxPoint x="360" y="159" />
              <mxPoint x="360" y="220" />
              <mxPoint x="516" y="220" />
            </Array>
          </mxGeometry>
        </mxCell>
        <mxCell id="RE29y_2BwcNEQJVxWCb2-25" value="HandJoint" style="swimlane;fontStyle=1;align=center;verticalAlign=top;childLayout=stackLayout;horizontal=1;startSize=26;horizontalStack=0;resizeParent=1;resizeParentMax=0;resizeLast=0;collapsible=1;marginBottom=0;whiteSpace=wrap;html=1;" vertex="1" parent="WIyWlLk6GJQsqaUBKTNV-1">
          <mxGeometry x="670" y="260" width="380" height="86" as="geometry" />
        </mxCell>
        <mxCell id="RE29y_2BwcNEQJVxWCb2-26" value="- position" style="text;strokeColor=none;fillColor=none;align=left;verticalAlign=top;spacingLeft=4;spacingRight=4;overflow=hidden;rotatable=0;points=[[0,0.5],[1,0.5]];portConstraint=eastwest;whiteSpace=wrap;html=1;" vertex="1" parent="RE29y_2BwcNEQJVxWCb2-25">
          <mxGeometry y="26" width="380" height="26" as="geometry" />
        </mxCell>
        <mxCell id="RE29y_2BwcNEQJVxWCb2-27" value="" style="line;strokeWidth=1;fillColor=none;align=left;verticalAlign=middle;spacingTop=-1;spacingLeft=3;spacingRight=3;rotatable=0;labelPosition=right;points=[];portConstraint=eastwest;strokeColor=inherit;" vertex="1" parent="RE29y_2BwcNEQJVxWCb2-25">
          <mxGeometry y="52" width="380" height="8" as="geometry" />
        </mxCell>
        <mxCell id="RE29y_2BwcNEQJVxWCb2-28" value="+ createFromLandmarks(handType, handJointType, handPoseData)" style="text;strokeColor=none;fillColor=none;align=left;verticalAlign=top;spacingLeft=4;spacingRight=4;overflow=hidden;rotatable=0;points=[[0,0.5],[1,0.5]];portConstraint=eastwest;whiteSpace=wrap;html=1;" vertex="1" parent="RE29y_2BwcNEQJVxWCb2-25">
          <mxGeometry y="60" width="380" height="26" as="geometry" />
        </mxCell>
        <mxCell id="RE29y_2BwcNEQJVxWCb2-29" value="" style="endArrow=open;html=1;endSize=12;startArrow=diamondThin;startSize=14;startFill=1;edgeStyle=orthogonalEdgeStyle;align=left;verticalAlign=bottom;rounded=0;exitX=0;exitY=0.5;exitDx=0;exitDy=0;entryX=0.997;entryY=0.201;entryDx=0;entryDy=0;entryPerimeter=0;" edge="1" parent="WIyWlLk6GJQsqaUBKTNV-1" source="RE29y_2BwcNEQJVxWCb2-28" target="RE29y_2BwcNEQJVxWCb2-20">
          <mxGeometry x="-1" y="3" relative="1" as="geometry">
            <mxPoint x="700" y="320" as="sourcePoint" />
            <mxPoint x="610" y="320" as="targetPoint" />
          </mxGeometry>
        </mxCell>
        <mxCell id="RE29y_2BwcNEQJVxWCb2-30" value="1" style="text;html=1;strokeColor=none;fillColor=none;align=center;verticalAlign=middle;whiteSpace=wrap;rounded=0;" vertex="1" parent="WIyWlLk6GJQsqaUBKTNV-1">
          <mxGeometry x="656" y="318" width="6" height="10" as="geometry" />
        </mxCell>
        <mxCell id="RE29y_2BwcNEQJVxWCb2-31" value="1" style="text;html=1;strokeColor=none;fillColor=none;align=center;verticalAlign=middle;whiteSpace=wrap;rounded=0;" vertex="1" parent="WIyWlLk6GJQsqaUBKTNV-1">
          <mxGeometry x="610" y="332" width="6" height="10" as="geometry" />
        </mxCell>
        <mxCell id="RE29y_2BwcNEQJVxWCb2-32" value="" style="endArrow=open;html=1;endSize=12;startArrow=diamondThin;startSize=14;startFill=1;edgeStyle=orthogonalEdgeStyle;align=left;verticalAlign=bottom;rounded=0;exitX=0;exitY=0.5;exitDx=0;exitDy=0;entryX=0.75;entryY=0;entryDx=0;entryDy=0;" edge="1" parent="WIyWlLk6GJQsqaUBKTNV-1" source="RE29y_2BwcNEQJVxWCb2-26" target="RE29y_2BwcNEQJVxWCb2-11">
          <mxGeometry x="-1" y="3" relative="1" as="geometry">
            <mxPoint x="730" y="220" as="sourcePoint" />
            <mxPoint x="630" y="270" as="targetPoint" />
            <Array as="points">
              <mxPoint x="650" y="299" />
              <mxPoint x="650" y="200" />
              <mxPoint x="380" y="200" />
            </Array>
          </mxGeometry>
        </mxCell>
        <mxCell id="RE29y_2BwcNEQJVxWCb2-33" value="1" style="text;html=1;strokeColor=none;fillColor=none;align=center;verticalAlign=middle;whiteSpace=wrap;rounded=0;" vertex="1" parent="WIyWlLk6GJQsqaUBKTNV-1">
          <mxGeometry x="656" y="284" width="6" height="10" as="geometry" />
        </mxCell>
        <mxCell id="RE29y_2BwcNEQJVxWCb2-34" value="1" style="text;html=1;strokeColor=none;fillColor=none;align=center;verticalAlign=middle;whiteSpace=wrap;rounded=0;" vertex="1" parent="WIyWlLk6GJQsqaUBKTNV-1">
          <mxGeometry x="390" y="240" width="6" height="10" as="geometry" />
        </mxCell>
        <mxCell id="RE29y_2BwcNEQJVxWCb2-35" value="HandPart" style="swimlane;fontStyle=1;align=center;verticalAlign=top;childLayout=stackLayout;horizontal=1;startSize=26;horizontalStack=0;resizeParent=1;resizeParentMax=0;resizeLast=0;collapsible=1;marginBottom=0;whiteSpace=wrap;html=1;" vertex="1" parent="WIyWlLk6GJQsqaUBKTNV-1">
          <mxGeometry x="670" y="385" width="680" height="190" as="geometry" />
        </mxCell>
        <mxCell id="RE29y_2BwcNEQJVxWCb2-36" value="-&amp;nbsp; heading: dict" style="text;strokeColor=none;fillColor=none;align=left;verticalAlign=top;spacingLeft=4;spacingRight=4;overflow=hidden;rotatable=0;points=[[0,0.5],[1,0.5]];portConstraint=eastwest;whiteSpace=wrap;html=1;" vertex="1" parent="RE29y_2BwcNEQJVxWCb2-35">
          <mxGeometry y="26" width="680" height="26" as="geometry" />
        </mxCell>
        <mxCell id="RE29y_2BwcNEQJVxWCb2-37" value="" style="line;strokeWidth=1;fillColor=none;align=left;verticalAlign=middle;spacingTop=-1;spacingLeft=3;spacingRight=3;rotatable=0;labelPosition=right;points=[];portConstraint=eastwest;strokeColor=inherit;" vertex="1" parent="RE29y_2BwcNEQJVxWCb2-35">
          <mxGeometry y="52" width="680" height="8" as="geometry" />
        </mxCell>
        <mxCell id="RE29y_2BwcNEQJVxWCb2-38" value="+ &lt;u&gt;createFromLandmarks(&lt;/u&gt;&lt;u style=&quot;border-color: var(--border-color);&quot;&gt;handPoseData: mediapipe.Landmark[],&amp;nbsp;&lt;/u&gt;&lt;u&gt;handType: HandType, handPartType: HandPartType)&lt;/u&gt;&lt;br&gt;+ compare(otherHandPart: HandPart): dict&lt;br&gt;-&amp;nbsp; &lt;u&gt;findHandJointTypes(originHandJoint: HandJoint, targetHandJoint: Handjoint)&lt;/u&gt;&lt;br&gt;-&amp;nbsp; &lt;u&gt;calculateHeading(originHandJoint: HandJoint, targetHandJoint: HandJoint)&lt;/u&gt;&lt;br&gt;-&amp;nbsp; &lt;u&gt;getAngleDiff(angle1: int, angle2: int)&lt;br&gt;&lt;/u&gt;" style="text;strokeColor=none;fillColor=none;align=left;verticalAlign=top;spacingLeft=4;spacingRight=4;overflow=hidden;rotatable=0;points=[[0,0.5],[1,0.5]];portConstraint=eastwest;whiteSpace=wrap;html=1;" vertex="1" parent="RE29y_2BwcNEQJVxWCb2-35">
          <mxGeometry y="60" width="680" height="130" as="geometry" />
        </mxCell>
        <mxCell id="RE29y_2BwcNEQJVxWCb2-39" value="" style="endArrow=open;html=1;endSize=12;startArrow=diamondThin;startSize=14;startFill=1;edgeStyle=orthogonalEdgeStyle;align=left;verticalAlign=bottom;rounded=0;exitX=0.5;exitY=0;exitDx=0;exitDy=0;entryX=1;entryY=0.5;entryDx=0;entryDy=0;" edge="1" parent="WIyWlLk6GJQsqaUBKTNV-1" source="RE29y_2BwcNEQJVxWCb2-35" target="RE29y_2BwcNEQJVxWCb2-26">
          <mxGeometry x="-1" y="3" relative="1" as="geometry">
            <mxPoint x="728" y="410" as="sourcePoint" />
            <mxPoint x="638" y="426" as="targetPoint" />
            <Array as="points">
              <mxPoint x="1010" y="360" />
              <mxPoint x="1080" y="360" />
              <mxPoint x="1080" y="299" />
            </Array>
          </mxGeometry>
        </mxCell>
        <mxCell id="RE29y_2BwcNEQJVxWCb2-40" value="2" style="text;html=1;strokeColor=none;fillColor=none;align=center;verticalAlign=middle;whiteSpace=wrap;rounded=0;" vertex="1" parent="WIyWlLk6GJQsqaUBKTNV-1">
          <mxGeometry x="1070" y="284" width="6" height="10" as="geometry" />
        </mxCell>
        <mxCell id="RE29y_2BwcNEQJVxWCb2-43" value="HandPartType" style="swimlane;fontStyle=1;align=center;verticalAlign=top;childLayout=stackLayout;horizontal=1;startSize=26;horizontalStack=0;resizeParent=1;resizeParentMax=0;resizeLast=0;collapsible=1;marginBottom=0;whiteSpace=wrap;html=1;" vertex="1" parent="WIyWlLk6GJQsqaUBKTNV-1">
          <mxGeometry x="670" y="600" width="160" height="188" as="geometry" />
        </mxCell>
        <mxCell id="RE29y_2BwcNEQJVxWCb2-44" value="&lt;div&gt;+ PINKY_BASE&lt;/div&gt;&lt;div&gt;+ PINKY_TIP&lt;/div&gt;&lt;div&gt;+ RING_FINGER_BASE&lt;/div&gt;&lt;div&gt;+ RING_FINGER_TIP&lt;/div&gt;&lt;div&gt;+ MIDDLE_FINGER_BASE&lt;/div&gt;&lt;div&gt;+ MIDDLE_FINGER_TIP&lt;/div&gt;&lt;div&gt;+ INDEX_FINGER_BASE&lt;/div&gt;&lt;div&gt;+ INDEX_FINGER_TIP&lt;/div&gt;&lt;div&gt;+ THUMB_BASE&lt;/div&gt;&lt;div&gt;+ THUMB_TIP&lt;/div&gt;" style="text;strokeColor=none;fillColor=none;align=left;verticalAlign=top;spacingLeft=4;spacingRight=4;overflow=hidden;rotatable=0;points=[[0,0.5],[1,0.5]];portConstraint=eastwest;whiteSpace=wrap;html=1;" vertex="1" parent="RE29y_2BwcNEQJVxWCb2-43">
          <mxGeometry y="26" width="160" height="154" as="geometry" />
        </mxCell>
        <mxCell id="RE29y_2BwcNEQJVxWCb2-45" value="" style="line;strokeWidth=1;fillColor=none;align=left;verticalAlign=middle;spacingTop=-1;spacingLeft=3;spacingRight=3;rotatable=0;labelPosition=right;points=[];portConstraint=eastwest;strokeColor=inherit;" vertex="1" parent="RE29y_2BwcNEQJVxWCb2-43">
          <mxGeometry y="180" width="160" height="8" as="geometry" />
        </mxCell>
        <mxCell id="RE29y_2BwcNEQJVxWCb2-46" value="" style="endArrow=open;html=1;endSize=12;startArrow=diamondThin;startSize=14;startFill=1;edgeStyle=orthogonalEdgeStyle;align=left;verticalAlign=bottom;rounded=0;exitX=1;exitY=0.5;exitDx=0;exitDy=0;entryX=1;entryY=0.5;entryDx=0;entryDy=0;" edge="1" parent="WIyWlLk6GJQsqaUBKTNV-1" source="RE29y_2BwcNEQJVxWCb2-36" target="RE29y_2BwcNEQJVxWCb2-44">
          <mxGeometry x="-1" y="3" relative="1" as="geometry">
            <mxPoint x="850" y="550" as="sourcePoint" />
            <mxPoint x="880" y="410" as="targetPoint" />
            <Array as="points">
              <mxPoint x="1390" y="424" />
              <mxPoint x="1390" y="703" />
            </Array>
          </mxGeometry>
        </mxCell>
        <mxCell id="RE29y_2BwcNEQJVxWCb2-49" value="1" style="text;html=1;strokeColor=none;fillColor=none;align=center;verticalAlign=middle;whiteSpace=wrap;rounded=0;" vertex="1" parent="WIyWlLk6GJQsqaUBKTNV-1">
          <mxGeometry x="1020" y="375" width="6" height="10" as="geometry" />
        </mxCell>
        <mxCell id="RE29y_2BwcNEQJVxWCb2-50" value="1" style="text;html=1;strokeColor=none;fillColor=none;align=center;verticalAlign=middle;whiteSpace=wrap;rounded=0;" vertex="1" parent="WIyWlLk6GJQsqaUBKTNV-1">
          <mxGeometry x="1350" y="418" width="34" height="32" as="geometry" />
        </mxCell>
        <mxCell id="RE29y_2BwcNEQJVxWCb2-51" value="1" style="text;html=1;strokeColor=none;fillColor=none;align=center;verticalAlign=middle;whiteSpace=wrap;rounded=0;" vertex="1" parent="WIyWlLk6GJQsqaUBKTNV-1">
          <mxGeometry x="840" y="710" width="6" height="10" as="geometry" />
        </mxCell>
        <mxCell id="RE29y_2BwcNEQJVxWCb2-57" value="BodyPoseDetection" style="swimlane;fontStyle=1;align=center;verticalAlign=top;childLayout=stackLayout;horizontal=1;startSize=26;horizontalStack=0;resizeParent=1;resizeParentMax=0;resizeLast=0;collapsible=1;marginBottom=0;whiteSpace=wrap;html=1;" vertex="1" parent="WIyWlLk6GJQsqaUBKTNV-1">
          <mxGeometry x="-180" y="60" width="160" height="86" as="geometry" />
        </mxCell>
        <mxCell id="RE29y_2BwcNEQJVxWCb2-58" value="+ field: type" style="text;strokeColor=none;fillColor=none;align=left;verticalAlign=top;spacingLeft=4;spacingRight=4;overflow=hidden;rotatable=0;points=[[0,0.5],[1,0.5]];portConstraint=eastwest;whiteSpace=wrap;html=1;" vertex="1" parent="RE29y_2BwcNEQJVxWCb2-57">
          <mxGeometry y="26" width="160" height="26" as="geometry" />
        </mxCell>
        <mxCell id="RE29y_2BwcNEQJVxWCb2-59" value="" style="line;strokeWidth=1;fillColor=none;align=left;verticalAlign=middle;spacingTop=-1;spacingLeft=3;spacingRight=3;rotatable=0;labelPosition=right;points=[];portConstraint=eastwest;strokeColor=inherit;" vertex="1" parent="RE29y_2BwcNEQJVxWCb2-57">
          <mxGeometry y="52" width="160" height="8" as="geometry" />
        </mxCell>
        <mxCell id="RE29y_2BwcNEQJVxWCb2-60" value="+ method(type): type" style="text;strokeColor=none;fillColor=none;align=left;verticalAlign=top;spacingLeft=4;spacingRight=4;overflow=hidden;rotatable=0;points=[[0,0.5],[1,0.5]];portConstraint=eastwest;whiteSpace=wrap;html=1;" vertex="1" parent="RE29y_2BwcNEQJVxWCb2-57">
          <mxGeometry y="60" width="160" height="26" as="geometry" />
        </mxCell>
        <mxCell id="RE29y_2BwcNEQJVxWCb2-62" value="" style="endArrow=open;html=1;endSize=12;startArrow=diamondThin;startSize=14;startFill=1;edgeStyle=orthogonalEdgeStyle;align=left;verticalAlign=bottom;rounded=0;exitX=1;exitY=0.5;exitDx=0;exitDy=0;entryX=0;entryY=0.5;entryDx=0;entryDy=0;" edge="1" parent="WIyWlLk6GJQsqaUBKTNV-1" source="RE29y_2BwcNEQJVxWCb2-58" target="RE29y_2BwcNEQJVxWCb2-1">
          <mxGeometry x="-1" y="3" relative="1" as="geometry">
            <mxPoint x="60" y="160" as="sourcePoint" />
            <mxPoint x="220" y="160" as="targetPoint" />
          </mxGeometry>
        </mxCell>
        <mxCell id="RE29y_2BwcNEQJVxWCb2-63" value="1" style="text;html=1;strokeColor=none;fillColor=none;align=center;verticalAlign=middle;whiteSpace=wrap;rounded=0;" vertex="1" parent="WIyWlLk6GJQsqaUBKTNV-1">
          <mxGeometry x="-20" y="76" width="20" height="20" as="geometry" />
        </mxCell>
        <mxCell id="RE29y_2BwcNEQJVxWCb2-64" value="1" style="text;html=1;strokeColor=none;fillColor=none;align=center;verticalAlign=middle;whiteSpace=wrap;rounded=0;" vertex="1" parent="WIyWlLk6GJQsqaUBKTNV-1">
          <mxGeometry x="80" y="75" width="20" height="20" as="geometry" />
        </mxCell>
      </root>
    </mxGraphModel>
  </diagram>
</mxfile>
